<svg xmlns="http://www.w3.org/2000/svg" xmlns:xlink="http://www.w3.org/1999/xlink" version="1.1" style="" xml:space="preserve" width="53.545" height="53.545"><rect id="backgroundrect" width="100%" height="100%" x="0" y="0" fill="none" stroke="none"/>
















<g class="currentLayer" style=""><title>Layer 1</title><g id="svg_1" class="selected" fill="#eb1a1a" fill-opacity="1">
	<g id="svg_2" fill="#eb1a1a" fill-opacity="1">
		<circle style="" cx="26.68600082397461" cy="4.506999969482422" r="4.506999969482422" id="svg_3" fill="#eb1a1a" fill-opacity="1"/>
		<path style="" d="M28.256,11.163c-1.123-0.228-2.344-0.218-3.447,0.042c-7.493,0.878-9.926,9.551-9.239,16.164    c0.298,2.859,4.805,2.889,4.504,0c-0.25-2.41-0.143-6.047,1.138-8.632c0,3.142,0,6.284,0,9.425c0,0.111,0.011,0.215,0.016,0.322    c-0.003,0.051-0.015,0.094-0.015,0.146c0,7.479-0.013,14.955-0.322,22.428c-0.137,3.322,5.014,3.309,5.15,0    c0.242-5.857,0.303-11.717,0.317-17.578c0.244,0.016,0.488,0.016,0.732,0.002c0.015,5.861,0.074,11.721,0.314,17.576    c0.137,3.309,5.288,3.322,5.15,0c-0.309-7.473-0.32-14.949-0.32-22.428c0-0.232-0.031-0.443-0.078-0.646    c-0.007-3.247-0.131-6.497-0.093-9.742c1.534,2.597,1.674,6.558,1.408,9.125c-0.302,2.887,4.206,2.858,4.504,0    C38.678,20.617,36.128,11.719,28.256,11.163z" id="svg_4" fill="#eb1a1a" fill-opacity="1"/>
	</g>
</g><g id="svg_5">
</g><g id="svg_6">
</g><g id="svg_7">
</g><g id="svg_8">
</g><g id="svg_9">
</g><g id="svg_10">
</g><g id="svg_11">
</g><g id="svg_12">
</g><g id="svg_13">
</g><g id="svg_14">
</g><g id="svg_15">
</g><g id="svg_16">
</g><g id="svg_17">
</g><g id="svg_18">
</g><g id="svg_19">
</g><image id="svg_20" x="24" y="11" width="1" height="0" xlink:href="logo/vector_paint_icon256.png" style="color: rgb(0, 0, 0);"/></g></svg>